# xmcd
#
# Track frame offsets:
#	183
#	14443
#	30323
#	45870
#	59980
#	73998
#	88743
#	100890
#	111688
#	124795
#	139295
#	148928
#	165438
#	179585
#	196228
#	212525
#
# Disc length: 2990 seconds
#
# Revision: 1
# Processed by: cddbd v1.5.1PL2 Copyright (c) Steve Scherf et al.
# Submitted via: audiograbber 1.83.01
#
DISCID=f40bac10
DTITLE=Ben Steneker - Volume 3 The Best Of
DYEAR=1997
DGENRE=Country
TTITLE0=Sweet Memories ( With Sandra Vanrys )
TTITLE1=Roll On Mississippi
TTITLE2=Devil Woman
TTITLE3=Heart To Heart ( With Aurora )
TTITLE4=Long Forgotten Dreams
TTITLE5=Mandy
TTITLE6=If It's Love
TTITLE7=Home's Where The Hurt Is
TTITLE8=Love Is Fire
TTITLE9=Too Old To Die Young
TTITLE10=But You Love Me Daddy
TTITLE11=Seasons Of The Heart
TTITLE12=Cajun Baby
TTITLE13=Seven Spanish Angel ( With Aurora )
TTITLE14=Green Rolling Hills
TTITLE15=I Can See It By Your Face
EXTD=
EXTT0=
EXTT1=
EXTT2=
EXTT3=
EXTT4=
EXTT5=
EXTT6=
EXTT7=
EXTT8=
EXTT9=
EXTT10=
EXTT11=
EXTT12=
EXTT13=
EXTT14=
EXTT15=
PLAYORDER=
